<svg width="25" height="19" viewBox="0 0 25 19" fill="none" xmlns="http://www.w3.org/2000/svg">
<path fill-rule="evenodd" clip-rule="evenodd" d="M10.5398 0.793308C10.727 0.980808 10.8322 1.23497 10.8322 1.49997C10.8322 1.76498 10.727 2.01914 10.5398 2.20664L4.24644 8.49997H23.1664C23.4317 8.49997 23.686 8.60533 23.8735 8.79287C24.0611 8.9804 24.1664 9.23476 24.1664 9.49998C24.1664 9.76519 24.0611 10.0195 23.8735 10.2071C23.686 10.3946 23.4317 10.5 23.1664 10.5H4.24644L10.5398 16.7933C10.638 16.8849 10.7168 16.9953 10.7715 17.1179C10.8261 17.2406 10.8555 17.373 10.8579 17.5073C10.8603 17.6416 10.8356 17.7749 10.7853 17.8994C10.735 18.024 10.6601 18.1371 10.5652 18.232C10.4702 18.327 10.3571 18.4018 10.2326 18.4521C10.1081 18.5024 9.97468 18.5271 9.84041 18.5248C9.70614 18.5224 9.57372 18.493 9.45105 18.4384C9.32839 18.3837 9.21799 18.3049 9.12644 18.2066L1.12644 10.2066C0.939171 10.0191 0.833984 9.76498 0.833984 9.49998C0.833984 9.23497 0.939171 8.98081 1.12644 8.79331L9.12644 0.793308C9.31394 0.60604 9.5681 0.500854 9.8331 0.500854C10.0981 0.500854 10.3523 0.60604 10.5398 0.793308Z" fill="#6BC84D"/>
</svg>
