<svg width="29" height="29" viewBox="0 0 29 29" fill="none" xmlns="http://www.w3.org/2000/svg">
<path d="M23 23C23.7956 23 24.5587 23.3161 25.1213 23.8787C25.6839 24.4413 26 25.2044 26 26C26 26.7956 25.6839 27.5587 25.1213 28.1213C24.5587 28.6839 23.7956 29 23 29C22.2044 29 21.4413 28.6839 20.8787 28.1213C20.3161 27.5587 20 26.7956 20 26C20 25.2044 20.3161 24.4413 20.8787 23.8787C21.4413 23.3161 22.2044 23 23 23ZM23 24.5C22.6022 24.5 22.2206 24.658 21.9393 24.9393C21.658 25.2206 21.5 25.6022 21.5 26C21.5 26.3978 21.658 26.7794 21.9393 27.0607C22.2206 27.342 22.6022 27.5 23 27.5C23.3978 27.5 23.7794 27.342 24.0607 27.0607C24.342 26.7794 24.5 26.3978 24.5 26C24.5 25.6022 24.342 25.2206 24.0607 24.9393C23.7794 24.658 23.3978 24.5 23 24.5ZM9.5 23C10.2956 23 11.0587 23.3161 11.6213 23.8787C12.1839 24.4413 12.5 25.2044 12.5 26C12.5 26.7956 12.1839 27.5587 11.6213 28.1213C11.0587 28.6839 10.2956 29 9.5 29C8.70435 29 7.94129 28.6839 7.37868 28.1213C6.81607 27.5587 6.5 26.7956 6.5 26C6.5 25.2044 6.81607 24.4413 7.37868 23.8787C7.94129 23.3161 8.70435 23 9.5 23ZM9.5 24.5C9.10218 24.5 8.72064 24.658 8.43934 24.9393C8.15804 25.2206 8 25.6022 8 26C8 26.3978 8.15804 26.7794 8.43934 27.0607C8.72064 27.342 9.10218 27.5 9.5 27.5C9.89782 27.5 10.2794 27.342 10.5607 27.0607C10.842 26.7794 11 26.3978 11 26C11 25.6022 10.842 25.2206 10.5607 24.9393C10.2794 24.658 9.89782 24.5 9.5 24.5ZM26 5H5.405L9.23 14H21.5C21.995 14 22.43 13.76 22.7 13.4L27.2 7.4C27.395 7.145 27.5 6.83 27.5 6.5C27.5 6.10218 27.342 5.72064 27.0607 5.43934C26.7794 5.15804 26.3978 5 26 5ZM21.5 15.5H9.305L8.15 17.84L8 18.5C8 18.8978 8.15804 19.2794 8.43934 19.5607C8.72064 19.842 9.10218 20 9.5 20H26V21.5H9.5C8.70435 21.5 7.94129 21.1839 7.37868 20.6213C6.81607 20.0587 6.5 19.2956 6.5 18.5C6.49955 17.991 6.6286 17.4903 6.875 17.045L7.955 14.84L2.51 2H0.5V0.5H3.5L4.775 3.5H26C26.7956 3.5 27.5587 3.81607 28.1213 4.37868C28.6839 4.94129 29 5.70435 29 6.5C29 7.25 28.745 7.88 28.325 8.39L23.96 14.225C23.42 14.99 22.52 15.5 21.5 15.5Z" fill="#6BC84D"/>
</svg>
