<svg width="15" height="22" viewBox="0 0 15 22" fill="none" xmlns="http://www.w3.org/2000/svg">
<path d="M7.5 0.5C3.35953 0.5 0 3.52391 0 7.25C0 13.25 7.5 21.5 7.5 21.5C7.5 21.5 15 13.25 15 7.25C15 3.52391 11.6405 0.5 7.5 0.5ZM7.5 11C6.90666 11 6.32664 10.8241 5.83329 10.4944C5.33994 10.1648 4.95542 9.69623 4.72836 9.14805C4.5013 8.59987 4.44189 7.99667 4.55764 7.41473C4.6734 6.83279 4.95912 6.29824 5.37868 5.87868C5.79824 5.45912 6.33279 5.1734 6.91473 5.05764C7.49667 4.94189 8.09987 5.0013 8.64805 5.22836C9.19623 5.45542 9.66476 5.83994 9.99441 6.33329C10.3241 6.82664 10.5 7.40666 10.5 8C10.4991 8.79538 10.1828 9.55794 9.62036 10.1204C9.05794 10.6828 8.29538 10.9991 7.5 11Z" fill="#6BC84D"/>
</svg>
