<svg width="25" height="26" viewBox="0 0 25 26" fill="none" xmlns="http://www.w3.org/2000/svg">
<path fill-rule="evenodd" clip-rule="evenodd" d="M7.72404 1.83333C8.09738 1.04667 8.90271 0.5 9.83338 0.5H15.1667C16.0974 0.5 16.9014 1.04667 17.276 1.83333C18.1867 1.84133 18.8974 1.88267 19.532 2.13067C20.2897 2.42703 20.9486 2.93068 21.4334 3.584C21.9227 4.24267 22.1534 5.08667 22.468 6.248L23.4574 9.87733L23.8307 10.9987L23.8627 11.0387C25.064 12.5773 24.492 14.8653 23.348 19.44C22.62 22.3507 22.2574 23.8053 21.172 24.6533C20.0867 25.5 18.5867 25.5 15.5867 25.5H9.41338C6.41338 25.5 4.91338 25.5 3.82804 24.6533C2.74271 23.8053 2.37871 22.3507 1.65204 19.44C0.508044 14.8653 -0.0639566 12.5773 1.13738 11.0387L1.16938 10.9987L1.54271 9.87733L2.53204 6.248C2.84804 5.08667 3.07871 4.24133 3.56671 3.58267C4.05168 2.92984 4.71057 2.42666 5.46804 2.13067C6.10271 1.88267 6.81204 1.84 7.72404 1.83333ZM7.72671 3.83733C6.84404 3.84667 6.48938 3.88 6.19604 3.99467C5.788 4.15424 5.43313 4.42548 5.17204 4.77733C4.93738 5.09333 4.79871 5.53467 4.41204 6.95733L3.65204 9.74267C5.01204 9.5 6.87071 9.5 9.41204 9.5H15.5867C18.1294 9.5 19.9867 9.5 21.3467 9.74L20.588 6.95467C20.2014 5.532 20.0627 5.09067 19.828 4.77467C19.567 4.42281 19.2121 4.15157 18.804 3.992C18.5107 3.87733 18.156 3.844 17.2734 3.83467C17.0841 4.23313 16.7857 4.56976 16.4128 4.80552C16.0399 5.04128 15.6079 5.1665 15.1667 5.16667H9.83338C9.39237 5.16662 8.96041 5.04159 8.58755 4.80608C8.21469 4.57057 7.91622 4.23555 7.72671 3.83733Z" fill="#6BC84D"/>
</svg>
