<svg width="18" height="22" viewBox="0 0 18 22" fill="none" xmlns="http://www.w3.org/2000/svg">
<path d="M18 17.1072V18.1072H0V17.1072L2 15.1072V9.10718C2 6.00718 4.03 3.27718 7 2.39718V2.10718C7 1.57674 7.21071 1.06804 7.58579 0.692964C7.96086 0.317891 8.46957 0.107178 9 0.107178C9.53043 0.107178 10.0391 0.317891 10.4142 0.692964C10.7893 1.06804 11 1.57674 11 2.10718V2.39718C13.97 3.27718 16 6.00718 16 9.10718V15.1072L18 17.1072ZM11 19.1072C11 19.6376 10.7893 20.1463 10.4142 20.5214C10.0391 20.8965 9.53043 21.1072 9 21.1072C8.46957 21.1072 7.96086 20.8965 7.58579 20.5214C7.21071 20.1463 7 19.6376 7 19.1072" fill="#6BC84D"/>
</svg>
