<svg width="36" height="36" viewBox="0 0 36 36" fill="none" xmlns="http://www.w3.org/2000/svg">
<path d="M33 18.75L31.7505 22.5M31.7505 22.5L30 27.75H23.25L21.75 22.5H31.7505ZM24.75 30.765L24.765 30.7485M29.25 30.765L29.265 30.7485M13.5 16.5C15.0913 16.5 16.6174 15.8679 17.7426 14.7426C18.8679 13.6174 19.5 12.0913 19.5 10.5C19.5 8.9087 18.8679 7.38258 17.7426 6.25736C16.6174 5.13214 15.0913 4.5 13.5 4.5C11.9087 4.5 10.3826 5.13214 9.25736 6.25736C8.13214 7.38258 7.5 8.9087 7.5 10.5C7.5 12.0913 8.13214 13.6174 9.25736 14.7426C10.3826 15.8679 11.9087 16.5 13.5 16.5Z" stroke="#6BC84D" stroke-width="1.5" stroke-linecap="round" stroke-linejoin="round"/>
<path d="M3 27C3.00003 25.0292 3.55474 23.0981 4.6007 21.4277C5.64666 19.7573 7.14163 18.415 8.91463 17.5543C10.6876 16.6936 12.6671 16.3493 14.6265 16.5608C16.586 16.7722 18.4464 17.5309 19.995 18.75" stroke="#6BC84D" stroke-width="1.5" stroke-linecap="round" stroke-linejoin="round"/>
</svg>
