<svg width="21" height="19" viewBox="0 0 21 19" fill="none" xmlns="http://www.w3.org/2000/svg">
<path d="M20.7 15.6334L12.5016 1.39563C12.2967 1.04681 12.0042 0.757581 11.6532 0.55662C11.3021 0.355659 10.9046 0.249939 10.5 0.249939C10.0955 0.249939 9.69798 0.355659 9.3469 0.55662C8.99581 0.757581 8.70334 1.04681 8.49847 1.39563L0.300029 15.6334C0.102907 15.9708 -0.000976562 16.3546 -0.000976562 16.7453C-0.000976562 17.1361 0.102907 17.5198 0.300029 17.8572C0.502276 18.2081 0.794251 18.4989 1.14599 18.6997C1.49773 18.9006 1.89658 19.0042 2.30159 19H18.6985C19.1032 19.0039 19.5016 18.9001 19.853 18.6993C20.2044 18.4985 20.4961 18.2078 20.6982 17.8572C20.8956 17.52 20.9998 17.1363 21.0001 16.7456C21.0004 16.3548 20.8969 15.971 20.7 15.6334ZM19.3997 17.1063C19.3282 17.2282 19.2256 17.3289 19.1024 17.3981C18.9792 17.4673 18.8398 17.5024 18.6985 17.5H2.30159C2.16029 17.5024 2.02088 17.4673 1.89765 17.3981C1.77442 17.3289 1.67181 17.2282 1.60034 17.1063C1.5356 16.9966 1.50145 16.8717 1.50145 16.7444C1.50145 16.6171 1.5356 16.4921 1.60034 16.3825L9.79878 2.14469C9.87169 2.02335 9.97477 1.92295 10.098 1.85324C10.2212 1.78354 10.3603 1.7469 10.5019 1.7469C10.6435 1.7469 10.7826 1.78354 10.9058 1.85324C11.029 1.92295 11.1321 2.02335 11.205 2.14469L19.4035 16.3825C19.4676 16.4924 19.5011 16.6176 19.5005 16.7449C19.4998 16.8722 19.465 16.997 19.3997 17.1063ZM9.75003 11.5V7.75C9.75003 7.55109 9.82905 7.36032 9.9697 7.21967C10.1104 7.07902 10.3011 7 10.5 7C10.6989 7 10.8897 7.07902 11.0304 7.21967C11.171 7.36032 11.25 7.55109 11.25 7.75V11.5C11.25 11.6989 11.171 11.8897 11.0304 12.0303C10.8897 12.171 10.6989 12.25 10.5 12.25C10.3011 12.25 10.1104 12.171 9.9697 12.0303C9.82905 11.8897 9.75003 11.6989 9.75003 11.5ZM11.625 14.875C11.625 15.0975 11.559 15.315 11.4354 15.5C11.3118 15.685 11.1361 15.8292 10.9305 15.9144C10.725 15.9995 10.4988 16.0218 10.2806 15.9784C10.0623 15.935 9.86187 15.8278 9.70453 15.6705C9.5472 15.5132 9.44005 15.3127 9.39665 15.0945C9.35324 14.8762 9.37552 14.65 9.46066 14.4445C9.54581 14.2389 9.69001 14.0632 9.87501 13.9396C10.06 13.816 10.2775 13.75 10.5 13.75C10.7984 13.75 11.0845 13.8685 11.2955 14.0795C11.5065 14.2905 11.625 14.5766 11.625 14.875Z" fill="#EB5757"/>
</svg>
