<svg width="24" height="24" viewBox="0 0 24 24" fill="none" xmlns="http://www.w3.org/2000/svg">
<path fill-rule="evenodd" clip-rule="evenodd" d="M13.4707 5.47C13.3302 5.61062 13.2513 5.80125 13.2513 6C13.2513 6.19875 13.3302 6.38937 13.4707 6.53L18.1907 11.25H4.00066C3.80175 11.25 3.61098 11.329 3.47033 11.4697C3.32968 11.6103 3.25066 11.8011 3.25066 12C3.25066 12.1989 3.32968 12.3897 3.47033 12.5303C3.61098 12.671 3.80175 12.75 4.00066 12.75H18.1907L13.4707 17.47C13.397 17.5387 13.3379 17.6215 13.2969 17.7135C13.2559 17.8055 13.2338 17.9048 13.2321 18.0055C13.2303 18.1062 13.2488 18.2062 13.2865 18.2996C13.3243 18.393 13.3804 18.4778 13.4516 18.549C13.5228 18.6203 13.6077 18.6764 13.7011 18.7141C13.7945 18.7518 13.8945 18.7704 13.9952 18.7686C14.0959 18.7668 14.1952 18.7448 14.2872 18.7038C14.3792 18.6628 14.462 18.6037 14.5307 18.53L20.5307 12.53C20.6711 12.3894 20.75 12.1987 20.75 12C20.75 11.8012 20.6711 11.6106 20.5307 11.47L14.5307 5.47C14.39 5.32955 14.1994 5.25066 14.0007 5.25066C13.8019 5.25066 13.6113 5.32955 13.4707 5.47Z" fill="#010101"/>
</svg>
