<svg width="25" height="24" viewBox="0 0 25 24" fill="none" xmlns="http://www.w3.org/2000/svg">
<g clip-path="url(#clip0_965_7762)">
<path d="M21.5 10V19C21.5 19.5304 21.2893 20.0391 20.9142 20.4142C20.5391 20.7893 20.0304 21 19.5 21H5.5C4.96957 21 4.46086 20.7893 4.08579 20.4142C3.71071 20.0391 3.5 19.5304 3.5 19V10H21.5ZM14.5 13H10.5C10.2348 13 9.98043 13.1054 9.79289 13.2929C9.60536 13.4804 9.5 13.7348 9.5 14C9.5 14.2652 9.60536 14.5196 9.79289 14.7071C9.98043 14.8946 10.2348 15 10.5 15H14.5C14.7652 15 15.0196 14.8946 15.2071 14.7071C15.3946 14.5196 15.5 14.2652 15.5 14C15.5 13.7348 15.3946 13.4804 15.2071 13.2929C15.0196 13.1054 14.7652 13 14.5 13ZM20.5 3C21.0304 3 21.5391 3.21071 21.9142 3.58579C22.2893 3.96086 22.5 4.46957 22.5 5V8H2.5V5C2.5 4.46957 2.71071 3.96086 3.08579 3.58579C3.46086 3.21071 3.96957 3 4.5 3H20.5Z" fill="#6BC84D"/>
</g>
<defs>
<clipPath id="clip0_965_7762">
<rect width="24" height="24" fill="white" transform="translate(0.5)"/>
</clipPath>
</defs>
</svg>
