<svg width="33" height="37" viewBox="0 0 33 37" fill="none" xmlns="http://www.w3.org/2000/svg">
<path d="M8.5 22.5606C8.08667 22.5606 7.72667 22.4072 7.42 22.1006C7.11333 21.7939 6.96 21.4339 6.96 21.0206C6.96 20.6072 7.11333 20.2479 7.42 19.9426C7.72667 19.6359 8.08667 19.4826 8.5 19.4826C8.91333 19.4826 9.27333 19.6359 9.58 19.9426C9.88667 20.2492 10.04 20.6092 10.04 21.0226C10.04 21.4346 9.88667 21.7939 9.58 22.1006C9.27333 22.4072 8.91333 22.5606 8.5 22.5606ZM16.5 22.5606C16.0867 22.5606 15.7267 22.4072 15.42 22.1006C15.1133 21.7939 14.96 21.4339 14.96 21.0206C14.96 20.6072 15.1133 20.2479 15.42 19.9426C15.7267 19.6359 16.0867 19.4826 16.5 19.4826C16.9133 19.4826 17.2733 19.6359 17.58 19.9426C17.8867 20.2492 18.04 20.6092 18.04 21.0226C18.04 21.4346 17.8867 21.7939 17.58 22.1006C17.2733 22.4072 16.9133 22.5606 16.5 22.5606ZM24.5 22.5606C24.0867 22.5606 23.7267 22.4072 23.42 22.1006C23.1133 21.7939 22.96 21.4339 22.96 21.0206C22.96 20.6072 23.1133 20.2479 23.42 19.9426C23.7267 19.6359 24.0867 19.4826 24.5 19.4826C24.9133 19.4826 25.2733 19.6359 25.58 19.9426C25.8867 20.2492 26.04 20.6092 26.04 21.0226C26.04 21.4346 25.8867 21.7939 25.58 22.1006C25.2733 22.4072 24.9133 22.5606 24.5 22.5606ZM3.73 36.7906C2.81 36.7906 2.042 36.4826 1.426 35.8666C0.808666 35.2492 0.5 34.4806 0.5 33.5606V8.02057C0.5 7.10057 0.808666 6.33257 1.426 5.71657C2.042 5.09923 2.81 4.79057 3.73 4.79057H7.27V0.330566H9.424V4.79057H23.73V0.330566H25.73V4.79057H29.27C30.19 4.79057 30.958 5.09923 31.574 5.71657C32.1913 6.33257 32.5 7.10057 32.5 8.02057V33.5606C32.5 34.4806 32.192 35.2486 31.576 35.8646C30.9587 36.4819 30.19 36.7906 29.27 36.7906H3.73ZM3.73 34.7906H29.27C29.5767 34.7906 29.8587 34.6626 30.116 34.4066C30.372 34.1492 30.5 33.8672 30.5 33.5606V16.0206H2.5V33.5606C2.5 33.8672 2.628 34.1492 2.884 34.4066C3.14133 34.6626 3.42333 34.7906 3.73 34.7906Z" fill="#6BC84D"/>
</svg>
