<svg width="151" height="137" viewBox="0 0 151 137" fill="none" xmlns="http://www.w3.org/2000/svg">
<path d="M28.4383 119.835H122.563C132.188 119.835 138.188 110.309 133.376 102.723L86.3133 28.5158C81.5008 20.9296 69.5008 20.9296 64.6883 28.5158L17.6258 102.723C12.8133 110.309 18.8133 119.835 28.4383 119.835ZM75.5008 79.9078C72.0633 79.9078 69.2508 77.341 69.2508 74.2039V62.7961C69.2508 59.659 72.0633 57.0923 75.5008 57.0923C78.9383 57.0923 81.7508 59.659 81.7508 62.7961V74.2039C81.7508 77.341 78.9383 79.9078 75.5008 79.9078ZM81.7508 102.723H69.2508V91.3156H81.7508V102.723Z" fill="#FFD80C"/>
</svg>
