<svg width="49" height="48" viewBox="0 0 49 48" fill="none" xmlns="http://www.w3.org/2000/svg">
<g clip-path="url(#clip0_233_8662)">
<path d="M24.5 0C11.2452 0 0.5 10.7452 0.5 24C0.5 37.2555 11.2452 48 24.5 48C37.7555 48 48.5 37.2555 48.5 24C48.5 10.7452 37.7555 0 24.5 0ZM24.5 45.0472C12.9207 45.0472 3.5 35.5793 3.5 23.9999C3.5 12.4207 12.9207 2.99991 24.5 2.99991C36.0793 2.99991 45.5 12.4207 45.5 23.9999C45.5 35.5791 36.0793 45.0472 24.5 45.0472ZM34.0783 15.2183L19.997 29.388L13.6557 23.0467C13.07 22.461 12.1205 22.461 11.534 23.0467C10.9482 23.6325 10.9482 24.582 11.534 25.1677L18.9582 32.5928C19.544 33.1777 20.4935 33.1777 21.08 32.5928C21.1475 32.5252 21.2052 32.4517 21.2577 32.3753L36.2008 17.34C36.7858 16.7542 36.7858 15.8047 36.2008 15.2183C35.6143 14.6325 34.6647 14.6325 34.0783 15.2183Z" fill="#FFBD41"/>
</g>
<defs>
<clipPath id="clip0_233_8662">
<rect width="48" height="48" fill="white" transform="translate(0.5)"/>
</clipPath>
</defs>
</svg>
