<svg width="37" height="36" viewBox="0 0 37 36" fill="none" xmlns="http://www.w3.org/2000/svg">
<path d="M18.5 2.25C12.2893 2.25 7.25 6.78586 7.25 12.375C7.25 21.375 18.5 33.75 18.5 33.75C18.5 33.75 29.75 21.375 29.75 12.375C29.75 6.78586 24.7107 2.25 18.5 2.25ZM18.5 18C17.61 18 16.74 17.7361 15.9999 17.2416C15.2599 16.7471 14.6831 16.0443 14.3425 15.2221C14.0019 14.3998 13.9128 13.495 14.0865 12.6221C14.2601 11.7492 14.6887 10.9474 15.318 10.318C15.9474 9.68868 16.7492 9.2601 17.6221 9.08647C18.495 8.91283 19.3998 9.00195 20.2221 9.34254C21.0443 9.68314 21.7471 10.2599 22.2416 10.9999C22.7361 11.74 23 12.61 23 13.5C22.9987 14.6931 22.5242 15.8369 21.6805 16.6805C20.8369 17.5242 19.6931 17.9987 18.5 18Z" fill="#333333"/>
</svg>
