<svg width="25" height="24" viewBox="0 0 25 24" fill="none" xmlns="http://www.w3.org/2000/svg">
<path d="M9.7502 22L9.3502 18.8C9.13353 18.7167 8.92953 18.6167 8.7382 18.5C8.54686 18.3833 8.3592 18.2583 8.1752 18.125L5.2002 19.375L2.4502 14.625L5.0252 12.675C5.00853 12.5583 5.0002 12.446 5.0002 12.338V11.663C5.0002 11.5543 5.00853 11.4417 5.0252 11.325L2.4502 9.375L5.2002 4.625L8.1752 5.875C8.35853 5.74167 8.5502 5.61667 8.7502 5.5C8.9502 5.38333 9.1502 5.28333 9.3502 5.2L9.7502 2H15.2502L15.6502 5.2C15.8669 5.28333 16.0712 5.38333 16.2632 5.5C16.4552 5.61667 16.6425 5.74167 16.8252 5.875L19.8002 4.625L22.5502 9.375L19.9752 11.325C19.9919 11.4417 20.0002 11.5543 20.0002 11.663V12.337C20.0002 12.4457 19.9835 12.5583 19.9502 12.675L22.5252 14.625L19.7752 19.375L16.8252 18.125C16.6419 18.2583 16.4502 18.3833 16.2502 18.5C16.0502 18.6167 15.8502 18.7167 15.6502 18.8L15.2502 22H9.7502ZM12.5502 15.5C13.5169 15.5 14.3419 15.1583 15.0252 14.475C15.7085 13.7917 16.0502 12.9667 16.0502 12C16.0502 11.0333 15.7085 10.2083 15.0252 9.525C14.3419 8.84167 13.5169 8.5 12.5502 8.5C11.5669 8.5 10.7375 8.84167 10.0622 9.525C9.38686 10.2083 9.04953 11.0333 9.0502 12C9.0502 12.9667 9.38786 13.7917 10.0632 14.475C10.7385 15.1583 11.5675 15.5 12.5502 15.5Z" fill="#6BC84D"/>
</svg>
