<svg width="25" height="25" viewBox="0 0 25 25" fill="none" xmlns="http://www.w3.org/2000/svg">
<path d="M4.5 20.5V17.98L17.68 4.78798C17.7827 4.69664 17.896 4.62598 18.02 4.57598C18.144 4.52598 18.273 4.50098 18.407 4.50098C18.5417 4.50098 18.6717 4.52198 18.797 4.56398C18.9237 4.60664 19.0403 4.68331 19.147 4.79398L20.213 5.86598C20.3237 5.97264 20.399 6.08931 20.439 6.21598C20.4797 6.34331 20.5 6.47064 20.5 6.59798C20.5 6.73331 20.477 6.86298 20.431 6.98698C20.3857 7.11031 20.313 7.22331 20.213 7.32598L7.02 20.5H4.5ZM18.004 8.08798L19.5 6.61198L18.388 5.49998L16.912 6.99598L18.004 8.08798Z" fill="#FFBD41"/>
</svg>
