<svg width="37" height="36" viewBox="0 0 37 36" fill="none" xmlns="http://www.w3.org/2000/svg">
<path d="M32 28.5V30H5V28.5L8 25.5V16.5C8 11.85 11.045 7.755 15.5 6.435V6C15.5 5.20435 15.8161 4.44129 16.3787 3.87868C16.9413 3.31607 17.7044 3 18.5 3C19.2956 3 20.0587 3.31607 20.6213 3.87868C21.1839 4.44129 21.5 5.20435 21.5 6V6.435C25.955 7.755 29 11.85 29 16.5V25.5L32 28.5ZM21.5 31.5C21.5 32.2956 21.1839 33.0587 20.6213 33.6213C20.0587 34.1839 19.2956 34.5 18.5 34.5C17.7044 34.5 16.9413 34.1839 16.3787 33.6213C15.8161 33.0587 15.5 32.2956 15.5 31.5" fill="#6BC84D"/>
</svg>
