<svg width="25" height="24" viewBox="0 0 25 24" fill="none" xmlns="http://www.w3.org/2000/svg">
<path fill-rule="evenodd" clip-rule="evenodd" d="M8.91828 3.25C9.19828 2.66 9.80228 2.25 10.5003 2.25H14.5003C15.1983 2.25 15.8013 2.66 16.0823 3.25C16.7653 3.256 17.2983 3.287 17.7743 3.473C18.3425 3.69527 18.8367 4.07301 19.2003 4.563C19.5673 5.057 19.7403 5.69 19.9763 6.561L20.7183 9.283L20.9983 10.124L21.0223 10.154C21.9233 11.308 21.4943 13.024 20.6363 16.455C20.0903 18.638 19.8183 19.729 19.0043 20.365C18.1903 21 17.0653 21 14.8153 21H10.1853C7.93528 21 6.81028 21 5.99628 20.365C5.18228 19.729 4.90928 18.638 4.36428 16.455C3.50628 13.024 3.07728 11.308 3.97828 10.154L4.00228 10.124L4.28228 9.283L5.02428 6.561C5.26128 5.69 5.43428 5.056 5.80028 4.562C6.164 4.07238 6.65817 3.695 7.22628 3.473C7.70228 3.287 8.23428 3.255 8.91828 3.25ZM8.92028 4.753C8.25828 4.76 7.99228 4.785 7.77228 4.871C7.46624 4.99068 7.20009 5.19411 7.00428 5.458C6.82828 5.695 6.72428 6.026 6.43428 7.093L5.86428 9.182C6.88428 9 8.27828 9 10.1843 9H14.8153C16.7223 9 18.1153 9 19.1353 9.18L18.5663 7.091C18.2763 6.024 18.1723 5.693 17.9963 5.456C17.8005 5.19211 17.5343 4.98868 17.2283 4.869C17.0083 4.783 16.7423 4.758 16.0803 4.751C15.9383 5.04985 15.7145 5.30232 15.4348 5.47914C15.1552 5.65596 14.8311 5.74987 14.5003 5.75H10.5003C10.1695 5.74996 9.84555 5.6562 9.56591 5.47956C9.28627 5.30293 9.06241 5.05166 8.92028 4.753Z" fill="#6BC84D"/>
</svg>
