<svg width="121" height="98" viewBox="0 0 121 98" fill="none" xmlns="http://www.w3.org/2000/svg">
<path d="M13.4383 97.835H107.563C117.188 97.835 123.188 88.3095 118.376 80.7233L71.3133 6.5158C66.5008 -1.07037 54.5008 -1.07037 49.6883 6.5158L2.62576 80.7233C-2.18674 88.3095 3.81326 97.835 13.4383 97.835ZM60.5008 57.9078C57.0633 57.9078 54.2508 55.341 54.2508 52.2039V40.7961C54.2508 37.659 57.0633 35.0923 60.5008 35.0923C63.9383 35.0923 66.7508 37.659 66.7508 40.7961V52.2039C66.7508 55.341 63.9383 57.9078 60.5008 57.9078ZM66.7508 80.7233H54.2508V69.3156H66.7508V80.7233Z" fill="#FFD80C"/>
</svg>
